<mxfile host="65bd71144e">
    <diagram id="GiLhtcjvvZcC565XbQnH" name="Page-1">
        <mxGraphModel dx="457" dy="1883" grid="1" gridSize="10" guides="1" tooltips="1" connect="1" arrows="1" fold="1" page="1" pageScale="1" pageWidth="850" pageHeight="1100" math="0" shadow="0">
            <root>
                <mxCell id="0"/>
                <mxCell id="1" parent="0"/>
                <mxCell id="2" value="" style="edgeStyle=elbowEdgeStyle;elbow=vertical;endArrow=classic;html=1;curved=0;rounded=0;endSize=8;startSize=8;" parent="1" edge="1">
                    <mxGeometry width="50" height="50" relative="1" as="geometry">
                        <mxPoint x="517.5" y="20" as="sourcePoint"/>
                        <mxPoint x="163" y="50" as="targetPoint"/>
                    </mxGeometry>
                </mxCell>
                <mxCell id="3" value="Go to room management in dashboard" style="rounded=0;whiteSpace=wrap;html=1;" parent="1" vertex="1">
                    <mxGeometry x="103" y="50" width="120" height="60" as="geometry"/>
                </mxCell>
                <mxCell id="4" value="" style="endArrow=classic;html=1;" parent="1" edge="1">
                    <mxGeometry width="50" height="50" relative="1" as="geometry">
                        <mxPoint x="160" y="160" as="sourcePoint"/>
                        <mxPoint x="160" y="180" as="targetPoint"/>
                    </mxGeometry>
                </mxCell>
                <mxCell id="5" value="Selects &quot;An application&quot;" style="rounded=0;whiteSpace=wrap;html=1;" parent="1" vertex="1">
                    <mxGeometry x="100" y="182" width="120" height="60" as="geometry"/>
                </mxCell>
                <mxCell id="6" value="" style="edgeStyle=elbowEdgeStyle;elbow=vertical;endArrow=classic;html=1;curved=0;rounded=0;endSize=8;startSize=8;entryX=0.5;entryY=0;entryDx=0;entryDy=0;" parent="1" target="9" edge="1">
                    <mxGeometry width="50" height="50" relative="1" as="geometry">
                        <mxPoint x="160" y="240" as="sourcePoint"/>
                        <mxPoint x="510" y="280" as="targetPoint"/>
                    </mxGeometry>
                </mxCell>
                <mxCell id="9" value="Report generate?" style="rhombus;whiteSpace=wrap;html=1;" parent="1" vertex="1">
                    <mxGeometry x="467" y="370" width="80" height="80" as="geometry"/>
                </mxCell>
                <mxCell id="10" value="" style="edgeStyle=elbowEdgeStyle;elbow=vertical;endArrow=classic;html=1;curved=0;rounded=0;endSize=8;startSize=8;" parent="1" edge="1">
                    <mxGeometry width="50" height="50" relative="1" as="geometry">
                        <mxPoint x="507" y="450" as="sourcePoint"/>
                        <mxPoint x="152" y="490" as="targetPoint"/>
                    </mxGeometry>
                </mxCell>
                <mxCell id="14" value="Receive message indicating approval/Non-Approval" style="rounded=0;whiteSpace=wrap;html=1;" parent="1" vertex="1">
                    <mxGeometry x="90" y="650" width="120" height="60" as="geometry"/>
                </mxCell>
                <mxCell id="15" value="" style="endArrow=classic;html=1;" parent="1" edge="1">
                    <mxGeometry width="50" height="50" relative="1" as="geometry">
                        <mxPoint x="150" y="710" as="sourcePoint"/>
                        <mxPoint x="150" y="730" as="targetPoint"/>
                    </mxGeometry>
                </mxCell>
                <mxCell id="16" value="Yes" style="text;html=1;align=center;verticalAlign=middle;resizable=0;points=[];autosize=1;strokeColor=none;fillColor=none;" parent="1" vertex="1">
                    <mxGeometry x="270" y="444" width="40" height="30" as="geometry"/>
                </mxCell>
                <mxCell id="17" value="" style="endArrow=classic;html=1;" parent="1" edge="1">
                    <mxGeometry width="50" height="50" relative="1" as="geometry">
                        <mxPoint x="548" y="411" as="sourcePoint"/>
                        <mxPoint x="580" y="410" as="targetPoint"/>
                    </mxGeometry>
                </mxCell>
                <mxCell id="18" value="No" style="text;html=1;align=center;verticalAlign=middle;resizable=0;points=[];autosize=1;strokeColor=none;fillColor=none;" parent="1" vertex="1">
                    <mxGeometry x="540" y="382" width="40" height="30" as="geometry"/>
                </mxCell>
                <mxCell id="19" value="Display &quot;Error&quot;" style="shape=parallelogram;perimeter=parallelogramPerimeter;whiteSpace=wrap;html=1;fixedSize=1;" parent="1" vertex="1">
                    <mxGeometry x="570" y="382" width="120" height="60" as="geometry"/>
                </mxCell>
                <mxCell id="20" value="" style="endArrow=classic;html=1;" parent="1" edge="1">
                    <mxGeometry width="50" height="50" relative="1" as="geometry">
                        <mxPoint x="680" y="414" as="sourcePoint"/>
                        <mxPoint x="720" y="414" as="targetPoint"/>
                    </mxGeometry>
                </mxCell>
                <mxCell id="21" value="Provides instructions on how to proceed" style="rounded=0;whiteSpace=wrap;html=1;" parent="1" vertex="1">
                    <mxGeometry x="720" y="382" width="120" height="60" as="geometry"/>
                </mxCell>
                <mxCell id="22" value="" style="edgeStyle=elbowEdgeStyle;elbow=vertical;endArrow=classic;html=1;curved=0;rounded=0;endSize=8;startSize=8;" parent="1" edge="1">
                    <mxGeometry width="50" height="50" relative="1" as="geometry">
                        <mxPoint x="780" y="380" as="sourcePoint"/>
                        <mxPoint x="420" y="100" as="targetPoint"/>
                        <Array as="points">
                            <mxPoint x="590" y="100"/>
                        </Array>
                    </mxGeometry>
                </mxCell>
                <mxCell id="23" value="Choose refresh or try again" style="rhombus;whiteSpace=wrap;html=1;fontFamily=Helvetica;fontSize=12;fontColor=default;align=center;strokeColor=default;fillColor=default;" parent="1" vertex="1">
                    <mxGeometry x="257" y="60" width="160" height="80" as="geometry"/>
                </mxCell>
                <mxCell id="24" value="" style="edgeStyle=elbowEdgeStyle;elbow=vertical;endArrow=classic;html=1;curved=0;rounded=0;endSize=8;startSize=8;" parent="1" edge="1">
                    <mxGeometry width="50" height="50" relative="1" as="geometry">
                        <mxPoint x="336" y="140" as="sourcePoint"/>
                        <mxPoint x="286" y="170" as="targetPoint"/>
                    </mxGeometry>
                </mxCell>
                <mxCell id="25" value="" style="edgeStyle=elbowEdgeStyle;elbow=vertical;endArrow=classic;html=1;curved=0;rounded=0;endSize=8;startSize=8;" parent="1" edge="1">
                    <mxGeometry width="50" height="50" relative="1" as="geometry">
                        <mxPoint x="337" y="140" as="sourcePoint"/>
                        <mxPoint x="387" y="170" as="targetPoint"/>
                    </mxGeometry>
                </mxCell>
                <mxCell id="26" value="If try again" style="rhombus;whiteSpace=wrap;html=1;" parent="1" vertex="1">
                    <mxGeometry x="246" y="169" width="80" height="31" as="geometry"/>
                </mxCell>
                <mxCell id="27" value="if refresh" style="rhombus;whiteSpace=wrap;html=1;" parent="1" vertex="1">
                    <mxGeometry x="347" y="169" width="80" height="31" as="geometry"/>
                </mxCell>
                <mxCell id="28" value="" style="endArrow=classic;html=1;" parent="1" edge="1">
                    <mxGeometry width="50" height="50" relative="1" as="geometry">
                        <mxPoint x="286" y="200" as="sourcePoint"/>
                        <mxPoint x="286" y="220" as="targetPoint"/>
                    </mxGeometry>
                </mxCell>
                <mxCell id="29" value="Revisit application later" style="rounded=0;whiteSpace=wrap;html=1;" parent="1" vertex="1">
                    <mxGeometry x="229" y="221" width="114" height="39" as="geometry"/>
                </mxCell>
                <mxCell id="30" value="Retrieve application again" style="rounded=0;whiteSpace=wrap;html=1;" parent="1" vertex="1">
                    <mxGeometry x="590" y="221" width="114" height="39" as="geometry"/>
                </mxCell>
                <mxCell id="32" value="" style="ellipse;" parent="1" vertex="1">
                    <mxGeometry x="500" y="-10" width="30" height="30" as="geometry"/>
                </mxCell>
                <mxCell id="33" value="" style="shape=sumEllipse;perimeter=ellipsePerimeter;whiteSpace=wrap;html=1;backgroundOutline=1;" parent="1" vertex="1">
                    <mxGeometry x="135" y="730" width="30" height="30" as="geometry"/>
                </mxCell>
                <mxCell id="34" value="&lt;font color=&quot;#18141d&quot;&gt;Approve/Not Approve&lt;/font&gt;" style="shape=parallelogram;perimeter=parallelogramPerimeter;whiteSpace=wrap;html=1;fixedSize=1;fontFamily=Helvetica;fontSize=12;fontColor=rgb(240, 240, 240);align=center;strokeColor=#000000;fillColor=#FFFFFF;" parent="1" vertex="1">
                    <mxGeometry x="73" y="490" width="160" height="60" as="geometry"/>
                </mxCell>
                <mxCell id="36" value="&lt;font color=&quot;#18141d&quot;&gt;Sees all types of application&lt;/font&gt;" style="shape=parallelogram;perimeter=parallelogramPerimeter;whiteSpace=wrap;html=1;fixedSize=1;fontFamily=Helvetica;fontSize=12;fontColor=rgb(240, 240, 240);align=center;strokeColor=#000000;fillColor=#FFFFFF;" parent="1" vertex="1">
                    <mxGeometry x="103" y="128" width="117" height="40" as="geometry"/>
                </mxCell>
                <mxCell id="37" value="" style="endArrow=classic;html=1;" parent="1" edge="1">
                    <mxGeometry width="50" height="50" relative="1" as="geometry">
                        <mxPoint x="160" y="110" as="sourcePoint"/>
                        <mxPoint x="160" y="130" as="targetPoint"/>
                    </mxGeometry>
                </mxCell>
                <mxCell id="38" value="" style="edgeStyle=elbowEdgeStyle;elbow=vertical;endArrow=classic;html=1;curved=0;rounded=0;endSize=8;startSize=8;" parent="1" edge="1">
                    <mxGeometry width="50" height="50" relative="1" as="geometry">
                        <mxPoint x="153" y="554" as="sourcePoint"/>
                        <mxPoint x="540" y="574" as="targetPoint"/>
                        <Array as="points">
                            <mxPoint x="370" y="574"/>
                        </Array>
                    </mxGeometry>
                </mxCell>
                <mxCell id="39" value="Records Information in database and upadates" style="rounded=0;whiteSpace=wrap;html=1;" parent="1" vertex="1">
                    <mxGeometry x="540" y="550" width="120" height="60" as="geometry"/>
                </mxCell>
                <mxCell id="40" value="" style="edgeStyle=elbowEdgeStyle;elbow=vertical;endArrow=classic;html=1;curved=0;rounded=0;endSize=8;startSize=8;exitX=0.5;exitY=1;exitDx=0;exitDy=0;" parent="1" source="39" edge="1">
                    <mxGeometry width="50" height="50" relative="1" as="geometry">
                        <mxPoint x="515" y="610" as="sourcePoint"/>
                        <mxPoint x="160" y="650" as="targetPoint"/>
                    </mxGeometry>
                </mxCell>
                <mxCell id="41" value="" style="edgeStyle=elbowEdgeStyle;elbow=vertical;endArrow=classic;html=1;curved=0;rounded=0;endSize=8;startSize=8;entryX=0.5;entryY=0;entryDx=0;entryDy=0;" parent="1" target="30" edge="1">
                    <mxGeometry width="50" height="50" relative="1" as="geometry">
                        <mxPoint x="429" y="185" as="sourcePoint"/>
                        <mxPoint x="479" y="135" as="targetPoint"/>
                        <Array as="points">
                            <mxPoint x="540" y="185"/>
                        </Array>
                    </mxGeometry>
                </mxCell>
                <mxCell id="42" value="Staff" style="swimlane;whiteSpace=wrap;html=1;" parent="1" vertex="1">
                    <mxGeometry x="73" y="-40" width="367" height="810" as="geometry"/>
                </mxCell>
                <mxCell id="43" value="System" style="swimlane;whiteSpace=wrap;html=1;" parent="1" vertex="1">
                    <mxGeometry x="440" y="-40" width="400" height="810" as="geometry"/>
                </mxCell>
            </root>
        </mxGraphModel>
    </diagram>
</mxfile>